<svg clip-rule="evenodd" fill-rule="evenodd" stroke-linejoin="round" stroke-miterlimit="2" viewBox="0 0 1015 194" xmlns="http://www.w3.org/2000/svg"><g fill-rule="nonzero"><g fill="#fff"><path d="m200.132 63.562c0-1.926 1.432-3.351 3.354-3.351.914 0 1.736.302 2.3.915l-.295.311c-.555-.556-1.229-.783-1.987-.783-1.653 0-2.9 1.246-2.9 2.908 0 1.661 1.247 2.907 2.9 2.907.758 0 1.432-.236 1.987-.793l.295.311c-.564.614-1.386.925-2.3.925-1.922 0-3.354-1.425-3.354-3.35z" transform="matrix(5.55556 0 0 5.55556 -970.933 -178.266)"/><path d="m217.479 63.562c0-1.671-1.238-2.908-2.882-2.908-1.654 0-2.892 1.237-2.892 2.908 0 1.67 1.238 2.907 2.892 2.907 1.644 0 2.882-1.237 2.882-2.907zm-6.246 0c0-1.917 1.433-3.351 3.364-3.351 1.921 0 3.362 1.425 3.362 3.351 0 1.925-1.441 3.35-3.362 3.35-1.931 0-3.364-1.434-3.364-3.35z" transform="matrix(5.55556 0 0 5.55556 -970.933 -178.266)"/><path d="m227.953 64.599-1.7-3.813-1.691 3.813zm.175.407h-3.751l-.822 1.859h-.508l2.975-6.607h.471l2.975 6.607h-.509z" transform="matrix(5.55556 0 0 5.55556 -970.933 -178.266)"/><path d="m234.554 63.562c0-1.926 1.432-3.351 3.354-3.351.914 0 1.737.302 2.301.915l-.296.311c-.554-.556-1.229-.783-1.986-.783-1.654 0-2.901 1.246-2.901 2.908 0 1.661 1.247 2.907 2.901 2.907.757 0 1.432-.236 1.986-.793l.296.311c-.564.614-1.387.925-2.301.925-1.922 0-3.354-1.425-3.354-3.35z" transform="matrix(5.55556 0 0 5.55556 -970.933 -178.266)"/><path d="m251.68 60.258v6.607h-.472v-3.143h-4.323v3.143h-.472v-6.607h.472v3.039h4.323v-3.039z" transform="matrix(5.55556 0 0 5.55556 -970.933 -178.266)"/><path d="m264.901 66.016.213-.359c.443.472 1.265.831 2.134.831 1.293 0 1.866-.576 1.866-1.294 0-1.982-4.037-.792-4.037-3.228 0-.934.702-1.755 2.291-1.755.711 0 1.451.226 1.949.594l-.176.387c-.535-.377-1.191-.557-1.773-.557-1.257 0-1.82.595-1.82 1.322 0 1.982 4.037.812 4.037 3.209 0 .934-.73 1.746-2.328 1.746-.961 0-1.884-.368-2.356-.896z" transform="matrix(5.55556 0 0 5.55556 -970.933 -178.266)"/><path d="m280.27 66.431v.434h-4.462v-6.607h4.324v.434h-3.853v2.605h3.446v.425h-3.446v2.709z" transform="matrix(5.55556 0 0 5.55556 -970.933 -178.266)"/><path d="m288.932 64.279c1.386 0 2.125-.661 2.125-1.793 0-1.143-.739-1.794-2.125-1.794h-1.848v3.587zm2.171 2.586-1.543-2.209c-.203.029-.406.048-.628.048h-1.848v2.161h-.471v-6.607h2.319c1.625 0 2.605.83 2.605 2.228 0 1.047-.554 1.774-1.515 2.066l1.616 2.313z" transform="matrix(5.55556 0 0 5.55556 -970.933 -178.266)"/><path d="m303.055 60.258-2.882 6.607h-.472l-2.882-6.607h.517l2.615 5.984 2.614-5.984z" transform="matrix(5.55556 0 0 5.55556 -970.933 -178.266)"/><path d="m744.19614988 156.50093448h2.62222432v36.70558492h-2.62222432z" stroke-width="5.55556"/><path d="m315.453 63.562c0-1.926 1.432-3.351 3.354-3.351.914 0 1.736.302 2.3.915l-.295.311c-.555-.556-1.229-.783-1.987-.783-1.653 0-2.901 1.246-2.901 2.908 0 1.661 1.248 2.907 2.901 2.907.758 0 1.432-.236 1.987-.793l.295.311c-.564.614-1.386.925-2.3.925-1.922 0-3.354-1.425-3.354-3.35z" transform="matrix(5.55556 0 0 5.55556 -970.933 -178.266)"/><path d="m331.774 66.431v.434h-4.462v-6.607h4.324v.434h-3.853v2.605h3.446v.425h-3.446v2.709z" transform="matrix(5.55556 0 0 5.55556 -970.933 -178.266)"/><path d="m179.204 34.474c-.078 1.375-.156 3.139-.156 7.964h7.315c4.099 0 6.07-1.193 6.07-3.969 0-2.801-1.971-3.995-6.07-3.995zm-2.127 16.81c-.753 0-1.557.051-2.309.103.13-1.79.337-4.384.337-9.468 0-6.277-.181-7.471-.337-9.235 1.194.052 2.646.104 3.839.104 1.09 0 6.485-.104 7.756-.104 7.316 0 10.455 1.505 10.455 5.785s-3.139 5.785-10.455 5.785h-7.289c.052 3.579.208 5.681.337 7.133-.752-.052-1.582-.103-2.334-.103z" transform="matrix(5.55556 0 0 5.55556 -970.933 -178.266)"/><path d="m204.524 34.474c-.078 1.323-.156 2.983-.156 7.679h7.16c4.98 0 6.225-1.505 6.225-3.84s-1.245-3.839-6.225-3.839zm7.652 9.469h-7.782c.052 3.761.234 5.862.337 7.444-.752-.052-1.582-.103-2.334-.103-.753 0-1.557.051-2.309.103.13-1.79.337-4.384.337-9.468 0-6.277-.181-7.471-.337-9.235 1.219.052 2.646.104 3.839.104 1.09 0 5.889-.104 7.601-.104 7.263 0 10.35 1.349 10.35 5.629 0 3.139-1.66 4.721-5.422 5.318 1.946 2.542 4.41 5.655 6.044 7.756-1.037-.077-1.789-.103-2.516-.103-.752 0-1.478.026-2.516.103-1.764-2.542-3.502-4.903-5.292-7.444z" transform="matrix(5.55556 0 0 5.55556 -970.933 -178.266)"/><path d="m244.63 33.022.519 2.36-.286.104c-.519-.83-2.153-1.012-3.58-1.012h-11.751c-.026 2.102-.155 4.255-.155 6.356h7.315c1.167 0 4.073-.079 5.033-.311-.053.492-.053.83-.053 1.219 0 .388 0 .726.053 1.219-.96-.286-3.866-.338-5.033-.338h-7.315c0 2.335.129 4.644.155 6.978h10.818c2.62 0 4.046-.181 5.421-1.66l.259.156-1.374 2.853c-.208.415-.286.441-.779.441-5.992 0-8.923-.103-11.387-.103-2.309 0-5.188.051-7.523.103.13-1.79.363-4.384.363-9.468 0-6.277-.207-7.471-.363-9.235 2.36.052 5.318.104 7.678.104 2.257 0 5.188-.104 11.57-.104.259 0 .363.079.415.338z" transform="matrix(5.55556 0 0 5.55556 -970.933 -178.266)"/><path d="m268.393 36.291-.311.102c-1.609-1.841-4.514-2.697-8.353-2.697-5.058 0-6.822 1.608-6.822 3.139 0 5.006 16.549.545 16.549 8.923 0 5.526-7.081 6.174-10.946 6.174-4.228 0-6.719-.675-9.079-1.635l-.831-3.241.312-.104c1.349 2.205 5.551 3.372 9.598 3.372 3.943 0 7.626-.908 7.626-3.71 0-5.395-16.549-.804-16.549-8.871 0-5.24 6.874-5.655 9.596-5.655 3.84 0 6.772.675 8.639 1.53z" transform="matrix(5.55556 0 0 5.55556 -970.933 -178.266)"/><path d="m282.169 51.284c-.752 0-1.556.051-2.308.103.129-1.79.337-4.384.337-9.468 0-4.228-.078-6.148-.182-7.496h-6.64c-1.038 0-1.791.31-2.465 1.245l-.311-.078.545-2.957h.311c.622.025 1.193.051 2.023.051h17.354c.831 0 1.712 0 2.05-.051h.311l.519 2.957-.285.078c-.649-.935-1.427-1.245-2.465-1.245h-6.641c-.103 1.348-.155 3.268-.155 7.496 0 5.084.207 7.678.337 9.468-.752-.052-1.582-.103-2.335-.103z" transform="matrix(5.55556 0 0 5.55556 -970.933 -178.266)"/><path d="m299.24 51.284c-.778 0-1.582.051-2.335.103.13-1.79.364-4.384.364-9.468 0-6.277-.182-7.471-.364-9.235.753.052 1.557.104 2.335.104.753 0 1.557-.052 2.309-.104-.156 1.764-.337 2.958-.337 9.235 0 5.084.207 7.678.337 9.468-.752-.052-1.556-.103-2.309-.103z" transform="matrix(5.55556 0 0 5.55556 -970.933 -178.266)"/><path d="m310.499 41.764c0 5.213 4.358 8.69 10.843 8.69 2.257 0 4.514-.338 6.122-1.038-.026-4.41-.182-5.473-.337-6.926.7.052 1.452.129 2.153.129.7 0 1.452-.077 2.179-.129-.182 1.53-.338 2.568-.338 7.782-1.011.285-2.101.623-3.268.882-2.024.467-4.228.856-6.563.856-8.456 0-15.408-3.45-15.408-10.221 0-6.226 6.018-9.701 15.33-9.701 3.165 0 6.2.415 8.846 1.452.337.104.648.286.726.597l.389 3.216-.285.078c-1.478-2.178-4.851-3.787-9.676-3.787-5.966 0-10.713 2.672-10.713 8.12z" transform="matrix(5.55556 0 0 5.55556 -970.933 -178.266)"/><path d="m356.027 33.022.519 2.36-.286.104c-.519-.83-2.153-1.012-3.58-1.012h-11.751c-.025 2.102-.155 4.255-.155 6.356h7.315c1.167 0 4.073-.079 5.033-.311-.053.492-.053.83-.053 1.219 0 .388 0 .726.053 1.219-.96-.286-3.866-.338-5.033-.338h-7.315c0 2.335.13 4.644.155 6.978h10.818c2.62 0 4.046-.181 5.421-1.66l.259.156-1.374 2.853c-.208.415-.286.441-.778.441-5.992 0-8.924-.103-11.388-.103-2.309 0-5.188.051-7.523.103.13-1.79.363-4.384.363-9.468 0-6.277-.207-7.471-.363-9.235 2.361.052 5.318.104 7.678.104 2.257 0 5.188-.104 11.57-.104.259 0 .363.079.415.338z" transform="matrix(5.55556 0 0 5.55556 -970.933 -178.266)"/></g><path d="m191.34 64.277h-9.353c-1.698 0-2.806-1.377-2.476-3.075h9.352c1.698 0 2.807 1.377 2.477 3.075z" fill="#f68723" transform="matrix(5.55556 0 0 5.55556 -970.933 -178.266)"/><path d="m352.768 61.205h-9.353c-1.698 0-2.806 1.417-2.476 3.165h9.352c1.698 0 2.807-1.417 2.477-3.165z" fill="#f68723" transform="matrix(5.55556 0 0 5.55556 -970.933 -178.266)"/></g></svg>